# xmcd
#
# Track frame offsets: 
#        183
#        14460
#        28623
#        44103
#        56023
#        75853
#        81570
#        94050
#        105470
#        113340
#        129810
#        145623
#        164223
#
# Disc length: 2393 seconds
#
# Revision: 0
# Processed by: cddbd v1.4PL0 Copyright (c) Steve Scherf et al.
# Submitted via: ExactAudioCopy v0.90b4
#
DISCID=a009570d
DTITLE=Eric Lee - Live at the Place
DYEAR=1990
DGENRE=Rhythmic Soul
TTITLE0=One way friendships
TTITLE1=Mean woman blues
TTITLE2=Boogie Rap
TTITLE3=Speed Metal Boogie
TTITLE4=Hi-Heel-Sneakers
TTITLE5=1,2,3,4,5
TTITLE6=Greenwood-Strat
TTITLE7=High School Confidential
TTITLE8=I wanna love you
TTITLE9=No more lonely nights
TTITLE10=Whole lot of shakin' goin' on
TTITLE11=City Live Boogie
TTITLE12=Turn on the love
EXTD=
EXTT0=
EXTT1=
EXTT2=
EXTT3=
EXTT4=
EXTT5=
EXTT6=
EXTT7=
EXTT8=
EXTT9=
EXTT10=
EXTT11=
EXTT12=
PLAYORDER=
